<?xml version="1.0" standalone="no"?><!DOCTYPE svg PUBLIC "-//W3C//DTD SVG 1.1//EN" "http://www.w3.org/Graphics/SVG/1.1/DTD/svg11.dtd"><svg width="100%" height="100%" viewBox="0 0 640 480" version="1.1" xmlns="http://www.w3.org/2000/svg" xmlns:xlink="http://www.w3.org/1999/xlink" xml:space="preserve" style="fill-rule:evenodd;clip-rule:evenodd;stroke-miterlimit:1.41421;"><g><rect x="-160.64" y="0" width="962.579" height="481.289" style="fill:#808080;stroke-width:1.25px;stroke:#000;"/><path d="M-160.64,0l0,53.809l854.963,427.482l107.616,0l0,-53.807l-854.963,-427.484l-107.616,0l0,0ZM801.939,0l0,53.808l-854.963,427.481l-107.616,0l0,-53.808l854.963,-427.481l107.616,0Z" style="fill:#fff;fill-rule:nonzero;stroke-width:1.25px;stroke:#000;"/><path d="M240.435,0l0,481.289l160.429,0l0,-481.289l-160.43,0l0.001,0ZM-160.64,160.43l0,160.43l962.579,0l0,-160.43l-962.579,0Z" style="fill:#fff;fill-rule:nonzero;stroke-width:1.25px;stroke:#000;"/><path d="M-160.64,192.516l0,96.258l962.579,0l0,-96.258l-962.579,0l0,0ZM272.521,0l0,481.289l96.256,0l0,-481.289l-96.256,0l0,0ZM-160.64,481.289l320.86,-160.429l71.744,0l-320.859,160.429l-71.745,0l0,0ZM-160.64,0l320.86,160.43l-71.745,0l-249.115,-124.556l0,-35.874l0,0ZM409.335,160.43l320.859,-160.43l71.745,0l-320.86,160.43l-71.744,0l0,0ZM801.939,481.289l-320.86,-160.429l71.745,0l249.115,124.557l0,35.872Z" style="fill:#b3b3b3;fill-rule:nonzero;stroke-width:1.25px;stroke:#000;"/></g></svg>