<?xml version="1.0" standalone="no"?><!DOCTYPE svg PUBLIC "-//W3C//DTD SVG 1.1//EN" "http://www.w3.org/Graphics/SVG/1.1/DTD/svg11.dtd"><svg width="100%" height="100%" viewBox="0 0 640 480" version="1.1" xmlns="http://www.w3.org/2000/svg" xmlns:xlink="http://www.w3.org/1999/xlink" xml:space="preserve" style="fill-rule:evenodd;clip-rule:evenodd;stroke-linejoin:round;stroke-miterlimit:1.41421;"><g><g><rect x="0" y="0" width="719.55" height="53.3" style="fill:#808080;"/><path d="M723.103,56.853l-726.656,0l0,-60.406l726.656,0l0,60.406ZM3.553,3.553l0,46.194l712.444,0l0,-46.194l-712.444,0l0,0Z" style="fill:#808080;"/></g><g><rect x="0" y="53.3" width="719.55" height="53.3" style="fill:#fff;"/><path d="M723.103,110.153l-726.656,0l0,-60.406l726.656,0l0,60.406ZM3.553,56.853l0,46.194l712.444,0l0,-46.194l-712.444,0l0,0Z" style="fill:#808080;"/></g><g><rect x="0" y="106.6" width="719.55" height="53.3" style="fill:#808080;"/><path d="M723.103,163.453l-726.656,0l0,-60.406l726.656,0l0,60.406ZM3.553,110.153l0,46.194l712.444,0l0,-46.194l-712.444,0l0,0Z" style="fill:#808080;"/></g><g><rect x="0" y="159.9" width="719.55" height="53.3" style="fill:#fff;"/><path d="M723.103,216.753l-726.656,0l0,-60.406l726.656,0l0,60.406ZM3.553,163.453l0,46.194l712.444,0l0,-46.194l-712.444,0l0,0Z" style="fill:#808080;"/></g><g><rect x="0" y="213.2" width="719.55" height="53.3" style="fill:#808080;"/><path d="M723.103,270.053l-726.656,0l0,-60.406l726.656,0l0,60.406ZM3.553,216.753l0,46.194l712.444,0l0,-46.194l-712.444,0l0,0Z" style="fill:#808080;"/></g><g><rect x="0" y="266.5" width="719.55" height="53.3" style="fill:#fff;"/><path d="M723.103,323.353l-726.656,0l0,-60.406l726.656,0l0,60.406ZM3.553,270.053l0,46.194l712.444,0l0,-46.194l-712.444,0l0,0Z" style="fill:#808080;"/></g><g><rect x="0" y="319.8" width="719.55" height="53.3" style="fill:#808080;"/><path d="M723.103,376.653l-726.656,0l0,-60.406l726.656,0l0,60.406ZM3.553,323.353l0,46.194l712.444,0l0,-46.194l-712.444,0l0,0Z" style="fill:#808080;"/></g><g><rect x="0" y="373.1" width="719.55" height="53.3" style="fill:#fff;"/><path d="M723.103,429.953l-726.656,0l0,-60.406l726.656,0l0,60.406ZM3.553,376.653l0,46.194l712.444,0l0,-46.194l-712.444,0l0,0Z" style="fill:#808080;"/></g><g><path d="M0,426.4l719.55,0l0,53.3l-719.55,0l0,-53.3ZM0,0l266.5,0l0,266.5l-266.5,0l0,-266.5Z" style="fill:#808080;"/><path d="M723.103,483.253l-726.656,0l0,-60.406l726.656,0l0,60.406ZM3.553,429.953l0,46.194l712.444,0l0,-46.194l-712.444,0l0,0ZM270.053,-3.553l0,273.606l-273.606,0l0,-273.606l273.606,0ZM3.553,3.553l0,259.394l259.394,0l0,-259.394l-259.394,0l0,0Z" style="fill:#808080;"/></g><g><g><rect x="106.6" y="0" width="53.3" height="266.5" style="fill:#fff;"/><path d="M163.453,-3.553l0,273.606l-60.406,0l0,-273.606l60.406,0ZM110.153,3.553l0,259.394l46.194,0l0,-259.394l-46.194,0l0,0Z" style="fill:#808080;"/></g><g><rect x="0" y="106.6" width="266.5" height="53.3" style="fill:#fff;"/><path d="M270.053,103.047l0,60.406l-273.606,0l0,-60.406l273.606,0ZM3.553,110.153l0,46.194l259.394,0l0,-46.194l-259.394,0l0,0Z" style="fill:#808080;"/></g></g></g></svg>