<?xml version="1.0" standalone="no"?><!DOCTYPE svg PUBLIC "-//W3C//DTD SVG 1.1//EN" "http://www.w3.org/Graphics/SVG/1.1/DTD/svg11.dtd"><svg width="100%" height="100%" viewBox="0 0 79 106" version="1.1" xmlns="http://www.w3.org/2000/svg" xmlns:xlink="http://www.w3.org/1999/xlink" xml:space="preserve" style="fill-rule:evenodd;clip-rule:evenodd;stroke-linejoin:round;stroke-miterlimit:1.41421;"><path d="M64.545,62.46c-0.048,2.979 0.012,3.82 0.024,7.904c-30.885,-43.034 -55.369,-69.337 -64.569,-69.403l3.552,103.444c4.421,0.047 10.342,-0.365 14.595,0.656l-0.131,-3.853c-3.93,-22.977 -2.058,-49.922 -2.797,-73.163c21.4,26.702 41.183,51.021 63.268,75.694c-0.334,-0.542 0.182,-94.231 0.399,-103.372c-6.355,0.35 -14.543,-0.425 -15.038,-0.363c-0.729,0.092 -0.396,0.058 -0.655,0.188c0.42,21.223 1.7,40.866 1.352,62.268Z" style="fill:#010101;"/></svg>