<?xml version="1.0" standalone="no"?><!DOCTYPE svg PUBLIC "-//W3C//DTD SVG 1.1//EN" "http://www.w3.org/Graphics/SVG/1.1/DTD/svg11.dtd"><svg width="100%" height="100%" viewBox="0 0 600 330" version="1.1" xmlns="http://www.w3.org/2000/svg" xmlns:xlink="http://www.w3.org/1999/xlink" xml:space="preserve" style="fill-rule:evenodd;clip-rule:evenodd;stroke-linejoin:round;stroke-miterlimit:1.41421;"><g id="Layer_x0020_1"><path d="M115.337,136.407l0.462,2.187c0.086,0.57 0.245,1.455 0.298,2.063c0.129,1.497 0.179,3.732 0.056,5.216l-0.08,9.137c0.284,0.43 0.284,1.081 0.285,1.572c0.02,8.811 0.116,18.527 -0.019,27.134c-0.103,6.584 0.367,18.417 -0.632,24.496l-0.112,3.431c3.64,-0.909 8.376,-0.543 12.159,-0.584c8.607,-0.093 20.33,-0.118 28.871,0.17c1.152,0.039 1.548,0.448 2.563,0.617l6.13,0.274c-1.368,-2.068 -0.855,-0.921 -1.14,-3.261l-0.23,-1.559c-0.317,-1.162 -0.323,-0.301 -0.718,-1.376c-0.025,-0.068 -0.083,-0.279 -0.101,-0.356l-0.801,-7.212c-0.655,-0.404 -1.755,-0.248 -2.591,-0.072c-1.369,0.289 -0.868,0.934 -4.929,0.901c-2.978,-0.025 -5.927,0.317 -8.706,0.498c-2.668,0.174 -5.318,0.696 -8.621,0.282l-8.174,-0.953c-1.135,-3.156 -1.019,-9.106 -1.052,-13.109c-0.058,-6.849 -0.109,-6.443 0.544,-13.23l13.385,0.058c0.931,1.083 -0.374,0.669 3.075,1.017c2.112,0.213 1.891,0.24 3.722,0.894l-0.456,-14.614c-2.162,-0.646 -2.602,1.572 -6.645,0.794l-0.79,-0.137c-0.058,0.047 -0.149,0.029 -0.187,0.126c-0.037,0.093 -0.133,0.091 -0.184,0.117l-1.055,0.376c-1.735,0.391 -3.344,0.528 -5.131,0.548c-2.18,0.024 -5.718,0.579 -6.303,-1.374c-0.346,-1.154 -0.091,-12.836 -0.011,-14.829c0.264,-6.533 -0.343,-5.671 9.811,-5.68c2.867,-0.002 7.95,-0.005 10.711,0.556l2.407,0.439c0.341,0.085 0.535,0.076 0.953,0.444c0.884,0.136 2.642,0.04 3.517,0.261c0.988,0.249 1.646,0.857 2.818,0.697l0.997,-0.066l0.422,-1.915l0.788,-1.382c0.013,-0.08 0.056,-0.099 0.091,-0.144c-0.522,-2.433 0.841,-1.43 1.233,-5.796c0.181,-2.023 1.392,-3.11 0.909,-5.471c-3.528,0.841 -2.041,0.508 -5.606,0.736c-1.922,0.124 -3.921,-0.015 -5.804,0.093c-5.439,0.312 -35.3,-0.378 -35.724,-0.323c-0.624,0.082 -0.338,0.051 -0.561,0.167l0.156,8.142Z" style="fill:#010101;"/><path d="M342.282,174.26c0.156,0.874 0.057,1.439 -0.263,2.018l-0.276,0.401c-0.026,0.038 -0.068,0.087 -0.093,0.125c-0.598,0.893 -0.136,0.11 -0.484,1.054l-3.345,4.766c-0.392,0.447 -0.073,0.243 -0.598,0.724l-1.209,1.191c-0.881,0.745 0.375,-0.331 -0.264,0.187l-2.232,1.921c-0.638,0.462 -1.017,0.243 -1.717,0.692c-0.81,0.519 -0.19,0.573 -1.599,0.801c-2.482,0.401 -4.915,2.072 -8.054,0.576c-0.374,-0.178 -0.381,-0.163 -0.794,-0.293c-0.537,-0.169 -0.675,-0.142 -1.009,-0.409c-1.33,0.063 -1.89,-0.136 -2.911,-0.92c-0.427,-0.329 -0.163,-0.099 -0.377,-0.318c-0.598,0.067 -0.699,0.148 -1.298,-0.181c-0.06,-0.034 -0.457,-0.385 -0.48,-0.41c-0.351,-0.391 -0.201,-0.236 -0.375,-0.528c-1.174,0.12 -0.485,-0.008 -0.587,-0.246c-0.782,-0.031 -1.235,-0.489 -2.317,-1.425c-2.736,-2.369 -2.122,-2.248 -3.42,-4.015c-2.072,-2.819 -1.545,-2.998 -2.325,-5.137c-0.471,-1.292 -0.74,-0.955 -0.786,-2.897c-0.162,-6.927 0.489,-4.414 0.893,-6.611c0.043,-1.526 0.34,-2.071 1.337,-2.532l0.059,-0.414c0.121,-1.044 3.699,-4.807 4.621,-5.411c0.37,-0.242 0.363,-0.154 0.669,-0.436c3.089,-2.853 2.593,-1.293 3.883,-2.456c0.576,-0.521 1.03,-0.83 2.042,-0.569c-0.265,-0.537 0.562,-0.273 0.815,-0.251c0.895,0.134 0.802,-0.149 1.721,-0.08c0.087,-0.295 -0.079,-0.377 1.444,-0.388c0.049,0 0.881,0.031 0.896,0.033c1.029,0.16 0.504,-0.093 0.794,0.335c0.72,-0.168 -0.169,-0.229 0.703,-0.076c0.696,0.122 0.346,-0.083 0.584,0.327c1.28,-0.196 0.536,-0.046 0.65,0.217c0.838,-0.104 -0.07,-0.216 0.49,-0.04c0.643,0.203 0.111,-0.094 0.383,0.254c1.488,-0.243 0.757,0.028 0.896,0.207c0.517,-0.083 0.168,-0.258 0.855,0.028c1.151,0.478 0.275,-0.061 0.46,0.63c1.47,-0.139 1.927,0.577 2.919,1.052c1.126,0.538 1.62,0.957 2.481,1.659c0.294,0.241 0.22,0.212 0.496,0.397c0.377,0.253 0.326,0.133 0.688,0.403c0.747,0.557 4.155,4.725 4.669,5.768c2.946,5.977 1.088,8.761 1.365,10.277l0,0ZM301.106,149.62c0.165,0.47 0.205,0.358 -0.258,0.183c0.178,0.473 0.238,0.386 -0.232,0.207c0.172,0.462 0.264,0.406 -0.202,0.241c0.175,0.463 0.288,0.427 -0.181,0.254c0.171,0.461 0.248,0.393 -0.213,0.22c0.172,0.472 0.219,0.371 -0.246,0.191c0.183,0.477 0.233,0.38 -0.239,0.197c0.168,0.454 0.246,0.383 -0.214,0.233c0.177,0.492 0.28,0.383 -0.227,0.383c-0.114,0.31 -1.071,1.359 -1.451,1.877c-3.754,5.109 -2.707,5.007 -3.82,6.89c-0.408,0.689 -0.569,1.293 -0.707,2.11c-0.011,0.066 -0.018,0.121 -0.029,0.188l-0.759,3.175c-0.37,2.256 0.095,4.871 -0.171,6.873c0.383,0.582 0.373,1.251 0.695,2.155c0.832,2.344 0.023,2.552 0.938,4.265c0.595,1.115 0.387,0.745 0.773,2.098c0.309,1.083 3.107,5.993 3.848,7.016c0.27,0.372 0.901,1.114 1.2,1.441l2.617,2.851c1.527,1.53 1.677,1.323 2.359,1.83c0.876,0.651 -0.514,-0.146 1.48,1.138c0.48,0.309 0.342,0.385 0.808,0.701c1.007,0.683 2.785,1.204 4.06,1.553c0.518,1.146 0.452,0.831 1.91,1.084c1.29,0.223 1.143,0.589 2.073,0.904c1.451,0.49 3.31,0.309 5.595,0.934c0.05,0.014 0.107,0.032 0.159,0.044c3.012,0.693 8.307,-0.7 11.47,-0.737l-0.217,0.066c0.433,-0.544 0.337,-0.387 1.035,-0.661c0.048,-0.019 0.111,-0.028 0.157,-0.047c1.289,-0.512 0.155,-0.445 1.828,-0.648c0.547,-0.066 1.127,-0.11 1.487,-0.319c0.587,-0.34 0.061,-0.429 1.207,-0.727c1.777,-0.463 1.066,-0.582 3.139,-1.334c1.365,-0.496 0.691,-1.28 2.421,-1.184c1.129,-0.008 5.044,-4.311 5.71,-5.033c1.594,-1.727 2.222,-2.994 3.296,-5.015c0.453,-0.854 0.639,-0.718 0.982,-1.873c0.327,-1.1 0.303,-0.919 0.771,-1.855c0.434,-0.866 0.359,-1.223 0.584,-2.273c0.164,-0.77 0.424,-1.229 0.668,-2.169c0.672,-2.59 0.655,-11.17 0.188,-13.214l-0.543,-0.666c-0.619,-0.842 -0.507,-1.168 -0.738,-2.156c-0.418,-1.787 -0.615,-0.505 -1.121,-2.58c-0.052,-0.213 0.053,-0.44 -0.513,-1.184c-0.273,-0.359 -0.103,-0.002 -0.382,-0.46c-0.368,-0.602 -0.073,-0.625 -0.674,-1.319c-1.242,-1.431 -0.652,-1.19 -1.243,-1.823c-0.489,-0.525 -0.019,0.277 -0.783,-0.95c-0.23,-0.37 -0.104,-0.219 -0.399,-0.494c-1.027,-0.957 -0.468,-0.611 -0.91,-1.033c-0.666,-0.636 0.093,0.362 -1.016,-0.96c-0.306,-0.364 -0.126,-0.166 -0.632,-0.467l-0.52,-0.369c-1.408,-1.408 -0.519,-0.282 -1.58,-1.239c-0.896,-0.809 -1.331,-0.872 -1.636,-1.198c-0.048,-0.051 -0.173,-0.217 -0.214,-0.277l-0.196,-0.355c-0.028,-0.049 -0.063,-0.13 -0.097,-0.193c-0.932,-0.961 -3.456,-1.982 -4.75,-2.493c-1.191,-0.471 -0.816,-0.769 -2.687,-1.073c-1.258,-0.204 -1.683,-0.622 -2.628,-0.991c-3.731,-0.082 -5.618,-1.139 -9.609,-0.883c-1.682,0.108 -2.531,0.644 -4.163,0.763c-3.878,0.283 -1.79,0.003 -4.207,0.943c-0.733,0.285 -1.423,0.225 -2.04,0.528c-1.043,0.511 -0.148,0.606 -1.625,0.927l-3.531,1.593c-1.888,1.424 -1.948,1.225 -4.41,3.243c-0.736,0.604 -0.515,0.834 -1.445,0.953l0,0Z" style="fill:#010101;"/><path d="M254.19,132.232c-0.117,0.382 0.064,0.404 -0.501,0.835c-0.64,0.488 0.126,0.225 -0.806,0.263c-0.162,0.288 0.516,0.449 -0.416,0.245c0.087,0.389 0.161,0.315 -0.225,0.216c0.096,0.392 0.169,0.318 -0.222,0.221c0.101,0.391 0.171,0.317 -0.22,0.213c-0.171,0.269 0.492,0.413 -0.406,0.236c0.062,0.385 0.131,0.306 -0.247,0.191c0.101,0.423 0.168,0.34 -0.246,0.198c0.136,0.444 0.206,0.364 -0.234,0.215c0.155,0.443 0.227,0.37 -0.216,0.218c0.155,0.453 0.218,0.374 -0.226,0.199c-0.031,0.047 -0.072,0.112 -0.092,0.141c-0.021,0.029 -0.066,0.104 -0.092,0.139c-0.796,1.098 -0.881,0.904 -1.477,0.905c-0.298,0.464 0.221,0.317 -0.658,0.431c0.048,0.364 0.12,0.288 -0.242,0.2c0.079,0.386 0.151,0.309 -0.233,0.215c0.097,0.389 0.168,0.315 -0.221,0.215c0.101,0.399 0.169,0.323 -0.225,0.2l-0.207,0.257c-0.923,1.099 -0.802,0.894 -1.496,0.876c0.049,0.378 0.119,0.299 -0.253,0.187c-0.121,0.328 -0.048,0.472 -0.524,0.818c-0.593,0.431 0.073,0.247 -0.824,0.238c-0.139,0.3 0.497,0.519 -0.431,0.229c-0.151,0.537 0.163,0.275 -0.507,0.833c-0.677,0.563 0.051,-0.068 -0.728,0.409c-0.824,0.504 -0.464,0.847 -1.575,0.76c0.094,0.418 0.156,0.331 -0.251,0.184c-0.033,0.045 -0.075,0.108 -0.097,0.136c-0.022,0.028 -0.071,0.101 -0.099,0.134c-0.517,0.627 -1.145,1.025 -1.952,1.085c0.084,0.402 0.151,0.32 -0.245,0.193c0.121,0.439 0.183,0.353 -0.245,0.193c-0.132,0.3 0.521,0.507 -0.413,0.242c-0.154,0.281 0.518,0.468 -0.416,0.237c0.105,0.464 0.154,0.319 -0.347,0.215l-0.022,-0.068c-0.353,0.769 -0.305,0.736 -1.114,1.093c-1.364,0.603 -0.501,0.204 -1.172,0.729c-0.28,0.219 -0.197,0.164 -0.558,0.361l-1.33,0.812c-0.039,0.03 -0.088,0.071 -0.128,0.101l-1.098,0.667c-0.617,0.426 -0.322,0.379 -1.199,0.799l-0.582,0.278c-0.035,0.023 -0.085,0.061 -0.118,0.086l-2.321,1.573l4.947,3.349c1.01,0.764 4.136,3.034 4.933,3.825c0.098,0.097 4.908,3.467 6.115,4.586l8.898,7.299c0.294,0.267 1.828,1.283 2.421,1.956c0.494,0.56 1.648,1.28 2.345,1.795l4.099,3.552c0.917,0.831 0.142,0.515 1.084,1.113c0.5,0.318 0.149,-0.013 0.682,0.423c0.93,0.763 1.485,2.297 2.047,3.386c-0.324,0.256 -0.618,0.422 -1.083,0.663l-5.288,4.093c-0.483,0.381 0.105,0.003 -0.527,0.369l-1.334,0.85c-0.053,0.03 -0.118,0.06 -0.168,0.087c-0.054,0.028 -0.139,0.06 -0.184,0.082c-0.047,0.024 -0.126,0.059 -0.192,0.081l-0.055,-0.182l-0.512,0.534c-0.06,0.058 -0.438,0.401 -0.469,0.425c-0.722,0.574 -0.79,0.347 -1.417,0.765l-0.239,0.194c-0.036,0.029 -0.08,0.077 -0.116,0.106c-0.963,0.796 -2.041,1.408 -3.005,2.005c-0.65,0.402 -0.28,0.387 -1.125,0.852l-7.482,4.346c-0.533,0.334 -0.858,0.32 -1.373,0.592l-3.545,2.289l3.048,3.24c0.579,0.695 0.743,0.364 0.812,1.37c0.443,-0.147 0.337,-0.191 0.187,0.253c0.469,-0.149 0.401,-0.228 0.213,0.226c0.495,-0.192 0.408,-0.255 0.211,0.236c0.345,0.116 0.369,-0.447 0.441,0.634c0.501,0.224 -0.014,-0.323 0.559,0.328c0.548,0.624 0.249,-0.055 0.307,0.795c0.487,0.244 2.714,3.471 2.687,4.506c1.859,0.92 0.726,0.994 2.816,-0.686l2.582,-2.236c2.654,-2.197 4.593,-4.058 7.315,-6.05l0.561,-0.501c0.825,-0.815 1.708,-1.392 2.676,-2.143l5.453,-4.233l0.573,-0.441c0.037,-0.033 0.086,-0.076 0.122,-0.111c0.787,-0.751 0.276,-0.639 1.464,-0.939c-0.05,-0.346 -0.101,-0.248 0.264,-0.166l0.174,-0.703l0.941,-0.164c0.118,-0.241 -0.279,-0.23 0.458,-0.194c-0.089,-0.387 -0.136,-0.287 0.256,-0.17c-0.133,-0.444 -0.27,-0.43 0.158,-0.278c-0.174,-0.487 -0.254,-0.418 0.225,-0.222c0.154,-0.224 -0.627,-0.329 0.62,-0.261l0.628,-0.677c0.581,-0.632 0.123,-0.245 0.909,-0.628c1.453,-0.707 -0.258,-0.19 1.912,-1.159c0.306,-0.137 0.268,-0.117 0.413,-0.235c1.051,-0.858 0.176,-0.366 1.407,-0.978c1.369,-0.681 0.051,-0.939 2.013,-1.066c0.569,-0.816 2.256,-1.994 3.16,-2.318c1.25,-0.448 0.495,-0.13 1.196,-0.744c0.793,-0.695 0.322,-0.154 1.208,-0.557c1.161,-0.527 0.011,-0.349 1.053,-0.887c0.853,-0.44 0.735,0.139 2.558,-1.434c-0.547,-0.333 -2.466,-1.328 -2.772,-1.634c-0.721,-0.721 0.207,-0.181 -1.263,-0.946l-0.727,-0.572c-0.033,-0.036 -0.076,-0.088 -0.108,-0.124l-0.218,-0.259c-0.025,-0.029 -0.076,-0.087 -0.112,-0.131c-0.997,-0.249 -6.901,-4.887 -7.906,-5.547l-9.577,-7.259c-1.111,-0.824 -2.269,-1.817 -3.395,-2.751c-0.547,-0.454 -1.071,-0.944 -1.634,-1.421l-5.118,-4.075l-0.219,-0.218l-0.219,-0.219l-0.218,-0.219l-0.219,-0.219c-0.746,-0.216 -1.148,-0.741 -1.531,-1.312c-0.851,-0.247 -1.802,-1.419 -2.736,-2.044c-2.387,-1.597 0.527,-3.187 1.495,-4.032l2.074,-1.664c1.664,-1.028 0.731,-1.091 2.01,-1.226c0.475,-0.709 0.874,-0.985 1.559,-1.522c0.764,-0.598 0.586,-0.774 1.72,-1.093c0,-0.314 -0.074,-0.238 0.248,-0.197c-0.039,-0.342 -0.11,-0.263 0.237,-0.209c-0.064,-0.353 -0.131,-0.281 0.221,-0.192c0.263,-0.351 -0.57,-0.355 0.388,-0.261c0,-0.351 -0.073,-0.265 0.285,-0.164c0.729,-1.2 0.976,-0.901 1.618,-1.265c0.417,-0.236 0.186,-0.103 0.461,-0.399c0.466,-0.502 -0.056,-0.211 0.552,-0.492c2.24,-1.034 0.413,-0.212 1.629,-1.035c0.525,-0.355 0.769,-0.186 1.299,-0.686c1.433,-1.355 0.418,-0.223 2.023,-1.463c0.468,-0.36 0.606,-0.423 1.25,-0.5c1.277,-1.529 0.692,-0.481 2.106,-1.369c0.708,-0.444 0.174,-0.338 1.05,-0.736c0.589,-0.268 0.399,0.019 0.991,-0.426c-1.991,-3.341 -3.048,-3.283 -3.8,-5.521c-0.878,-0.433 -0.675,-0.429 -1.044,-1.415c-0.499,-1.33 -0.435,-0.321 -0.939,-1.449c-0.881,-1.972 -0.253,-0.497 -0.951,-1.442c-0.492,-0.667 -0.156,-0.991 -0.771,-1.674c-2.817,1.133 -0.891,0.204 -2.968,2.021l-4.461,4.069c-0.315,0.277 0.015,-0.017 -0.322,0.339c-0.437,0.461 -1.891,1.501 -2.451,2.15c-0.066,0.076 -0.12,0.231 -0.298,0.369c-0.373,0.29 0.185,0.337 -0.819,0.239l0,0Z" style="fill:#010101;"/><path d="M211.342,174.26c0.156,0.874 0.057,1.439 -0.263,2.018l-0.276,0.401c-0.027,0.038 -0.068,0.087 -0.094,0.125c-0.597,0.893 -0.136,0.11 -0.483,1.054l-3.345,4.766c-0.393,0.447 -0.074,0.243 -0.598,0.724l-1.209,1.191c-0.882,0.745 0.374,-0.331 -0.264,0.187l-2.232,1.921c-0.638,0.462 -1.017,0.243 -1.717,0.692c-0.81,0.519 -0.191,0.573 -1.599,0.801c-2.482,0.401 -4.915,2.072 -8.055,0.576c-0.373,-0.178 -0.38,-0.163 -0.793,-0.293c-0.537,-0.169 -0.675,-0.142 -1.009,-0.409c-1.331,0.063 -1.891,-0.136 -2.911,-0.92c-0.427,-0.329 -0.164,-0.099 -0.377,-0.318c-0.598,0.067 -0.7,0.148 -1.298,-0.181c-0.06,-0.034 -0.457,-0.385 -0.48,-0.41c-0.352,-0.391 -0.202,-0.236 -0.375,-0.528c-1.174,0.12 -0.485,-0.008 -0.587,-0.246c-0.782,-0.031 -1.236,-0.489 -2.317,-1.425c-2.736,-2.369 -2.122,-2.248 -3.421,-4.015c-2.071,-2.819 -1.544,-2.998 -2.324,-5.137c-0.471,-1.292 -0.741,-0.955 -0.786,-2.897c-0.162,-6.927 0.489,-4.414 0.893,-6.611c0.043,-1.526 0.34,-2.071 1.337,-2.532l0.059,-0.414c0.12,-1.044 3.699,-4.807 4.621,-5.411c0.37,-0.242 0.362,-0.154 0.668,-0.436c3.09,-2.853 2.594,-1.293 3.884,-2.456c0.576,-0.521 1.03,-0.83 2.042,-0.569c-0.265,-0.537 0.562,-0.273 0.815,-0.251c0.894,0.134 0.801,-0.149 1.721,-0.08c0.087,-0.295 -0.079,-0.377 1.443,-0.388c0.049,0 0.882,0.031 0.896,0.033c1.029,0.16 0.505,-0.093 0.795,0.335c0.72,-0.168 -0.169,-0.229 0.702,-0.076c0.697,0.122 0.347,-0.083 0.585,0.327c1.28,-0.196 0.535,-0.046 0.65,0.217c0.837,-0.104 -0.07,-0.216 0.489,-0.04c0.644,0.203 0.112,-0.094 0.383,0.254c1.489,-0.243 0.757,0.028 0.896,0.207c0.517,-0.083 0.169,-0.258 0.856,0.028c1.151,0.478 0.275,-0.061 0.46,0.63c1.469,-0.139 1.927,0.577 2.919,1.052c1.126,0.538 1.619,0.957 2.48,1.659c0.295,0.241 0.221,0.212 0.496,0.397c0.377,0.253 0.327,0.133 0.689,0.403c0.746,0.557 4.154,4.725 4.669,5.768c2.946,5.977 1.087,8.761 1.365,10.277l0,0ZM170.165,149.62c0.166,0.47 0.206,0.358 -0.257,0.183c0.177,0.473 0.237,0.386 -0.232,0.207c0.172,0.462 0.264,0.406 -0.203,0.241c0.176,0.463 0.289,0.427 -0.18,0.254c0.171,0.461 0.248,0.393 -0.213,0.22c0.171,0.472 0.218,0.371 -0.246,0.191c0.183,0.477 0.233,0.38 -0.239,0.197c0.168,0.454 0.246,0.383 -0.214,0.233c0.176,0.492 0.28,0.383 -0.227,0.383c-0.114,0.31 -1.071,1.359 -1.451,1.877c-3.754,5.109 -2.707,5.007 -3.821,6.89c-0.407,0.689 -0.568,1.293 -0.706,2.11c-0.012,0.066 -0.018,0.121 -0.029,0.188l-0.759,3.175c-0.37,2.256 0.095,4.871 -0.171,6.873c0.383,0.582 0.373,1.251 0.694,2.155c0.832,2.344 0.024,2.552 0.938,4.265c0.596,1.115 0.387,0.745 0.773,2.098c0.309,1.083 3.108,5.993 3.849,7.016c0.269,0.372 0.9,1.114 1.2,1.441l2.617,2.851c1.527,1.53 1.677,1.323 2.359,1.83c0.876,0.651 -0.514,-0.146 1.48,1.138c0.48,0.309 0.342,0.385 0.808,0.701c1.007,0.683 2.785,1.204 4.06,1.553c0.517,1.146 0.452,0.831 1.909,1.084c1.29,0.223 1.143,0.589 2.074,0.904c1.451,0.49 3.31,0.309 5.595,0.934c0.05,0.014 0.106,0.032 0.158,0.044c3.013,0.693 8.307,-0.7 11.471,-0.737l-0.217,0.066c0.433,-0.544 0.337,-0.387 1.034,-0.661c0.049,-0.019 0.111,-0.028 0.158,-0.047c1.289,-0.512 0.154,-0.445 1.828,-0.648c0.547,-0.066 1.127,-0.11 1.486,-0.319c0.587,-0.34 0.062,-0.429 1.207,-0.727c1.778,-0.463 1.067,-0.582 3.14,-1.334c1.365,-0.496 0.69,-1.28 2.421,-1.184c1.129,-0.008 5.043,-4.311 5.71,-5.033c1.594,-1.727 2.222,-2.994 3.296,-5.015c0.453,-0.854 0.639,-0.718 0.982,-1.873c0.327,-1.1 0.303,-0.919 0.771,-1.855c0.433,-0.866 0.358,-1.223 0.583,-2.273c0.165,-0.77 0.425,-1.229 0.669,-2.169c0.672,-2.59 0.655,-11.17 0.188,-13.214l-0.543,-0.666c-0.619,-0.842 -0.507,-1.168 -0.739,-2.156c-0.417,-1.787 -0.615,-0.505 -1.12,-2.58c-0.052,-0.213 0.052,-0.44 -0.513,-1.184c-0.273,-0.359 -0.103,-0.002 -0.383,-0.46c-0.367,-0.602 -0.072,-0.625 -0.674,-1.319c-1.241,-1.431 -0.651,-1.19 -1.242,-1.823c-0.489,-0.525 -0.02,0.277 -0.783,-0.95c-0.23,-0.37 -0.104,-0.219 -0.399,-0.494c-1.028,-0.957 -0.468,-0.611 -0.911,-1.033c-0.665,-0.636 0.094,0.362 -1.016,-0.96c-0.305,-0.364 -0.126,-0.166 -0.631,-0.467l-0.52,-0.369c-1.408,-1.408 -0.519,-0.282 -1.58,-1.239c-0.896,-0.809 -1.331,-0.872 -1.637,-1.198c-0.047,-0.051 -0.172,-0.217 -0.213,-0.277l-0.196,-0.355c-0.028,-0.049 -0.063,-0.13 -0.097,-0.193c-0.932,-0.961 -3.456,-1.982 -4.75,-2.493c-1.192,-0.471 -0.817,-0.769 -2.688,-1.073c-1.258,-0.204 -1.682,-0.622 -2.627,-0.991c-3.731,-0.082 -5.618,-1.139 -9.609,-0.883c-1.682,0.108 -2.531,0.644 -4.163,0.763c-3.878,0.283 -1.79,0.003 -4.208,0.943c-0.732,0.285 -1.423,0.225 -2.04,0.528c-1.042,0.511 -0.147,0.606 -1.624,0.927l-3.531,1.593c-1.888,1.424 -1.949,1.225 -4.41,3.243c-0.736,0.604 -0.515,0.834 -1.446,0.953l0,0Z" style="fill:#010101;"/><path d="M90.919,180.077c-0.048,2.979 0.012,3.82 0.024,7.904c-30.885,-43.034 -55.369,-69.337 -64.569,-69.403l3.552,103.444c4.421,0.047 10.342,-0.365 14.595,0.656l-0.131,-3.853c-3.93,-22.977 -2.058,-49.922 -2.797,-73.163c21.4,26.702 41.183,51.021 63.268,75.694c-0.334,-0.542 0.182,-94.231 0.399,-103.372c-6.355,0.35 -14.543,-0.425 -15.038,-0.363c-0.729,0.092 -0.396,0.058 -0.655,0.188c0.42,21.223 1.7,40.866 1.352,62.268l0,0Z" style="fill:#010101;"/><path d="M365.364,136.312l0.463,2.187c0.086,0.57 0.245,1.455 0.298,2.063c0.129,1.497 0.179,3.732 0.056,5.216l-0.08,9.137c0.284,0.43 0.283,1.081 0.285,1.573c0.02,8.81 0.115,18.526 -0.019,27.133c-0.103,6.584 0.367,18.417 -0.632,24.496l-0.112,3.431c3.64,-0.909 8.707,-0.543 12.49,-0.584c2.55,-25.149 -0.081,-56.019 0.527,-82.638c-5.439,0.312 -12.446,-0.378 -12.87,-0.323c-0.624,0.082 -0.339,0.051 -0.561,0.167l0.155,8.142Z" style="fill:#010101;"/><path d="M406.405,132.671l-0.462,2.457c-0.086,0.64 -0.245,1.633 -0.298,2.316c-0.129,1.681 -0.179,4.191 -0.056,5.857l0.08,10.26c-0.284,0.483 -0.284,1.214 -0.285,1.766c-0.003,1.885 -0.01,3.807 -0.017,5.75c5.618,-4.036 11.515,-8.802 16.302,-12.348c0.323,-0.239 0.75,-0.553 0.91,-0.928l6.033,-4.377c1.027,-0.647 2.473,-1.758 3.4,-2.558c0.377,-0.325 0.889,-0.847 1.226,-1.173l1.237,-1.33l5.278,-4.033c0.172,0.074 0.029,-0.078 0.352,0.248c0.219,0.22 2.787,4.652 5.337,7.68c-13.998,9.891 -23.327,18.2 -35.294,26.516c0.271,0.189 0.531,0.363 0.768,0.513l6.033,4.377c0.16,0.375 0.587,0.689 0.91,0.928c7.484,5.543 17.678,14.068 25.282,18.125l2.301,1.596c-2.166,1.688 -4.11,4.828 -5.768,7.02c-13.553,-8.224 -22.74,-16.037 -34.339,-24.913c0.007,3.201 0.026,6.35 0.068,9.377c0.103,7.393 -0.367,20.681 0.632,27.507l0.112,3.853c-3.64,-1.02 -8.707,-0.609 -12.49,-0.655c-2.55,-28.242 0.081,-62.907 -0.527,-92.799c5.439,0.351 12.446,-0.424 12.87,-0.362c0.624,0.092 0.339,0.057 0.561,0.188l-0.156,9.142l0,0Z" style="fill:#010101;"/><path d="M496.895,174.26c0.156,0.874 0.057,1.439 -0.263,2.018l-0.276,0.401c-0.026,0.038 -0.068,0.087 -0.093,0.125c-0.598,0.893 -0.136,0.11 -0.484,1.054l-3.345,4.766c-0.392,0.447 -0.073,0.243 -0.598,0.724l-1.209,1.191c-0.881,0.745 0.375,-0.331 -0.263,0.187l-2.233,1.921c-0.637,0.462 -1.017,0.243 -1.717,0.692c-0.81,0.519 -0.19,0.573 -1.599,0.801c-2.482,0.401 -4.915,2.072 -8.054,0.576c-0.374,-0.178 -0.381,-0.163 -0.794,-0.293c-0.537,-0.169 -0.675,-0.142 -1.009,-0.409c-1.33,0.063 -1.89,-0.136 -2.911,-0.92c-0.427,-0.329 -0.163,-0.099 -0.377,-0.318c-0.598,0.067 -0.699,0.148 -1.298,-0.181c-0.06,-0.034 -0.457,-0.385 -0.48,-0.41c-0.351,-0.391 -0.201,-0.236 -0.375,-0.528c-1.174,0.12 -0.485,-0.008 -0.587,-0.246c-0.782,-0.031 -1.235,-0.489 -2.316,-1.425c-2.737,-2.369 -2.123,-2.248 -3.421,-4.015c-2.072,-2.819 -1.545,-2.998 -2.325,-5.137c-0.471,-1.292 -0.74,-0.955 -0.786,-2.897c-0.162,-6.927 0.489,-4.414 0.893,-6.611c0.043,-1.526 0.34,-2.071 1.337,-2.532l0.059,-0.414c0.121,-1.044 3.699,-4.807 4.621,-5.411c0.37,-0.242 0.363,-0.154 0.669,-0.436c3.089,-2.853 2.593,-1.293 3.883,-2.456c0.576,-0.521 1.03,-0.83 2.042,-0.569c-0.265,-0.537 0.562,-0.273 0.815,-0.251c0.895,0.134 0.802,-0.149 1.721,-0.08c0.087,-0.295 -0.079,-0.377 1.444,-0.388c0.049,0 0.881,0.031 0.896,0.033c1.029,0.16 0.504,-0.093 0.794,0.335c0.72,-0.168 -0.169,-0.229 0.703,-0.076c0.696,0.122 0.346,-0.083 0.584,0.327c1.28,-0.196 0.536,-0.046 0.65,0.217c0.838,-0.104 -0.07,-0.216 0.49,-0.04c0.643,0.203 0.111,-0.094 0.383,0.254c1.488,-0.243 0.757,0.028 0.896,0.207c0.517,-0.083 0.168,-0.258 0.855,0.028c1.151,0.478 0.275,-0.061 0.46,0.63c1.47,-0.139 1.927,0.577 2.919,1.052c1.126,0.538 1.62,0.957 2.481,1.659c0.294,0.241 0.22,0.212 0.496,0.397c0.377,0.253 0.326,0.133 0.688,0.403c0.747,0.557 4.155,4.725 4.669,5.768c2.946,5.977 1.088,8.761 1.365,10.277l0,0ZM455.719,149.62c0.165,0.47 0.205,0.358 -0.258,0.183c0.178,0.473 0.238,0.386 -0.232,0.207c0.172,0.462 0.264,0.406 -0.202,0.241c0.175,0.463 0.288,0.427 -0.181,0.254c0.171,0.461 0.248,0.393 -0.213,0.22c0.172,0.472 0.219,0.371 -0.246,0.191c0.183,0.477 0.233,0.38 -0.239,0.197c0.168,0.454 0.246,0.383 -0.214,0.233c0.177,0.492 0.28,0.383 -0.227,0.383c-0.114,0.31 -1.071,1.359 -1.451,1.877c-3.754,5.109 -2.707,5.007 -3.82,6.89c-0.408,0.689 -0.569,1.293 -0.707,2.11c-0.011,0.066 -0.018,0.121 -0.029,0.188l-0.759,3.175c-0.37,2.256 0.095,4.871 -0.171,6.873c0.383,0.582 0.373,1.251 0.695,2.155c0.832,2.344 0.023,2.552 0.938,4.265c0.595,1.115 0.387,0.745 0.773,2.098c0.309,1.083 3.107,5.993 3.848,7.016c0.27,0.372 0.901,1.114 1.2,1.441l2.617,2.851c1.527,1.53 1.677,1.323 2.359,1.83c0.876,0.651 -0.514,-0.146 1.48,1.138c0.48,0.309 0.342,0.385 0.808,0.701c1.007,0.683 2.785,1.204 4.06,1.553c0.518,1.146 0.452,0.831 1.91,1.084c1.29,0.223 1.143,0.589 2.073,0.904c1.451,0.49 3.31,0.309 5.595,0.934c0.05,0.014 0.107,0.032 0.159,0.044c3.012,0.693 8.307,-0.7 11.47,-0.737l-0.217,0.066c0.433,-0.544 0.337,-0.387 1.035,-0.661c0.048,-0.019 0.111,-0.028 0.157,-0.047c1.289,-0.512 0.155,-0.445 1.828,-0.648c0.547,-0.066 1.127,-0.11 1.487,-0.319c0.587,-0.34 0.061,-0.429 1.207,-0.727c1.777,-0.463 1.066,-0.582 3.139,-1.334c1.365,-0.496 0.691,-1.28 2.421,-1.184c1.129,-0.008 5.044,-4.311 5.71,-5.033c1.594,-1.727 2.222,-2.994 3.296,-5.015c0.453,-0.854 0.639,-0.718 0.982,-1.873c0.327,-1.1 0.303,-0.919 0.771,-1.855c0.434,-0.866 0.359,-1.223 0.584,-2.273c0.164,-0.77 0.424,-1.229 0.668,-2.169c0.672,-2.59 0.655,-11.17 0.188,-13.214l-0.543,-0.666c-0.619,-0.842 -0.507,-1.168 -0.738,-2.156c-0.418,-1.787 -0.615,-0.505 -1.121,-2.58c-0.051,-0.213 0.053,-0.44 -0.513,-1.184c-0.273,-0.359 -0.103,-0.002 -0.382,-0.46c-0.368,-0.602 -0.073,-0.625 -0.674,-1.319c-1.242,-1.431 -0.652,-1.19 -1.243,-1.823c-0.489,-0.525 -0.019,0.277 -0.783,-0.95c-0.23,-0.37 -0.104,-0.219 -0.399,-0.494c-1.027,-0.957 -0.468,-0.611 -0.91,-1.033c-0.666,-0.636 0.093,0.362 -1.016,-0.96c-0.306,-0.364 -0.126,-0.166 -0.632,-0.467l-0.52,-0.369c-1.408,-1.408 -0.519,-0.282 -1.58,-1.239c-0.896,-0.809 -1.331,-0.872 -1.636,-1.198c-0.048,-0.051 -0.173,-0.217 -0.214,-0.277l-0.196,-0.355c-0.028,-0.049 -0.063,-0.13 -0.097,-0.193c-0.932,-0.961 -3.456,-1.982 -4.75,-2.493c-1.191,-0.471 -0.816,-0.769 -2.687,-1.073c-1.258,-0.204 -1.683,-0.622 -2.628,-0.991c-3.731,-0.082 -5.618,-1.139 -9.609,-0.883c-1.682,0.108 -2.531,0.644 -4.163,0.763c-3.878,0.283 -1.79,0.003 -4.207,0.943c-0.733,0.285 -1.423,0.225 -2.04,0.528c-1.043,0.511 -0.148,0.606 -1.625,0.927l-3.531,1.593c-1.888,1.424 -1.948,1.225 -4.41,3.243c-0.736,0.604 -0.515,0.834 -1.445,0.953l0,0Z" style="fill:#010101;"/><path d="M539.603,132.232c-0.116,0.382 0.065,0.404 -0.5,0.835c-0.64,0.488 0.126,0.225 -0.806,0.263c-0.162,0.288 0.515,0.449 -0.416,0.245c0.087,0.389 0.161,0.315 -0.225,0.216c0.096,0.392 0.169,0.318 -0.222,0.221c0.101,0.391 0.171,0.317 -0.221,0.213c-0.17,0.269 0.493,0.413 -0.405,0.236c0.062,0.385 0.131,0.306 -0.247,0.191c0.101,0.423 0.168,0.34 -0.246,0.198c0.136,0.444 0.206,0.364 -0.234,0.215c0.155,0.443 0.227,0.37 -0.217,0.218c0.155,0.453 0.219,0.374 -0.226,0.199c-0.03,0.047 -0.071,0.112 -0.092,0.141c-0.02,0.029 -0.065,0.104 -0.091,0.139c-0.796,1.098 -0.881,0.904 -1.477,0.905c-0.298,0.464 0.221,0.317 -0.659,0.431c0.048,0.364 0.121,0.288 -0.241,0.2c0.078,0.386 0.151,0.309 -0.233,0.215c0.097,0.389 0.168,0.315 -0.221,0.215c0.101,0.399 0.169,0.323 -0.226,0.2l-0.206,0.257c-0.923,1.099 -0.802,0.894 -1.497,0.876c0.05,0.378 0.12,0.299 -0.252,0.187c-0.121,0.328 -0.048,0.472 -0.524,0.818c-0.593,0.431 0.073,0.247 -0.824,0.238c-0.139,0.3 0.497,0.519 -0.431,0.229c-0.151,0.537 0.163,0.275 -0.507,0.833c-0.677,0.563 0.051,-0.068 -0.728,0.409c-0.824,0.504 -0.464,0.847 -1.575,0.76c0.094,0.418 0.156,0.331 -0.251,0.184c-0.033,0.045 -0.075,0.108 -0.097,0.136c-0.022,0.028 -0.071,0.101 -0.099,0.134c-0.517,0.627 -1.145,1.025 -1.952,1.085c0.084,0.402 0.15,0.32 -0.245,0.193c0.121,0.439 0.183,0.353 -0.245,0.193c-0.132,0.3 0.521,0.507 -0.413,0.242c-0.154,0.281 0.517,0.468 -0.416,0.237c0.105,0.464 0.154,0.319 -0.347,0.215l-0.022,-0.068c-0.354,0.769 -0.306,0.736 -1.114,1.093c-1.364,0.603 -0.501,0.204 -1.172,0.729c-0.28,0.219 -0.197,0.164 -0.558,0.361l-1.33,0.812c-0.039,0.03 -0.088,0.071 -0.128,0.101l-1.098,0.667c-0.617,0.426 -0.322,0.379 -1.199,0.799l-0.582,0.278c-0.035,0.023 -0.086,0.061 -0.118,0.086l-2.321,1.573l4.947,3.349c1.01,0.764 4.136,3.034 4.933,3.825c0.098,0.097 4.908,3.467 6.115,4.586l8.898,7.299c0.294,0.267 1.828,1.283 2.421,1.956c0.493,0.56 1.648,1.28 2.345,1.795l4.099,3.552c0.917,0.831 0.142,0.515 1.084,1.113c0.5,0.318 0.149,-0.013 0.681,0.423c0.93,0.763 1.486,2.297 2.048,3.386c-0.324,0.256 -0.619,0.422 -1.084,0.663l-5.288,4.093c-0.482,0.381 0.105,0.003 -0.526,0.369l-1.335,0.85c-0.052,0.03 -0.117,0.06 -0.168,0.087c-0.053,0.028 -0.138,0.06 -0.183,0.082c-0.047,0.024 -0.126,0.059 -0.192,0.081l-0.055,-0.182l-0.512,0.534c-0.06,0.058 -0.439,0.401 -0.469,0.425c-0.722,0.574 -0.79,0.347 -1.417,0.765l-0.239,0.194c-0.036,0.029 -0.08,0.077 -0.116,0.106c-0.963,0.796 -2.041,1.408 -3.005,2.005c-0.65,0.402 -0.28,0.387 -1.125,0.852l-7.482,4.346c-0.533,0.334 -0.858,0.32 -1.373,0.592l-3.545,2.289l3.048,3.24c0.579,0.695 0.743,0.364 0.812,1.37c0.443,-0.147 0.337,-0.191 0.187,0.253c0.469,-0.149 0.401,-0.228 0.212,0.226c0.496,-0.192 0.409,-0.255 0.212,0.236c0.345,0.116 0.369,-0.447 0.441,0.634c0.501,0.224 -0.014,-0.323 0.558,0.328c0.549,0.624 0.25,-0.055 0.308,0.795c0.487,0.244 2.714,3.471 2.687,4.506c1.859,0.92 0.726,0.994 2.816,-0.686l2.582,-2.236c2.654,-2.197 4.593,-4.058 7.315,-6.05l0.561,-0.501c0.825,-0.815 1.707,-1.392 2.676,-2.143l5.453,-4.233l0.573,-0.441c0.037,-0.033 0.085,-0.076 0.122,-0.111c0.787,-0.751 0.276,-0.639 1.464,-0.939c-0.05,-0.346 -0.101,-0.248 0.264,-0.166l0.174,-0.703l0.941,-0.164c0.117,-0.241 -0.279,-0.23 0.458,-0.194c-0.089,-0.387 -0.136,-0.287 0.256,-0.17c-0.133,-0.444 -0.27,-0.43 0.158,-0.278c-0.174,-0.487 -0.254,-0.418 0.225,-0.222c0.153,-0.224 -0.627,-0.329 0.62,-0.261l0.628,-0.677c0.581,-0.632 0.122,-0.245 0.909,-0.628c1.453,-0.707 -0.258,-0.19 1.912,-1.159c0.306,-0.137 0.268,-0.117 0.413,-0.235c1.051,-0.858 0.175,-0.366 1.406,-0.978c1.37,-0.681 0.051,-0.939 2.014,-1.066c0.569,-0.816 2.256,-1.994 3.16,-2.318c1.25,-0.448 0.495,-0.13 1.196,-0.744c0.793,-0.695 0.322,-0.154 1.208,-0.557c1.161,-0.527 0.011,-0.349 1.053,-0.887c0.853,-0.44 0.735,0.139 2.558,-1.434c-0.548,-0.333 -2.466,-1.328 -2.772,-1.634c-0.721,-0.721 0.207,-0.181 -1.263,-0.946l-0.727,-0.572c-0.034,-0.036 -0.076,-0.088 -0.108,-0.124l-0.218,-0.259c-0.025,-0.029 -0.076,-0.087 -0.112,-0.131c-0.997,-0.249 -6.901,-4.887 -7.906,-5.547l-9.578,-7.259c-1.111,-0.824 -2.268,-1.817 -3.394,-2.751c-0.548,-0.454 -1.071,-0.944 -1.634,-1.421l-5.119,-4.075l-0.218,-0.218l-0.219,-0.219l-0.219,-0.219l-0.218,-0.219c-0.746,-0.216 -1.148,-0.741 -1.531,-1.312c-0.851,-0.247 -1.802,-1.419 -2.736,-2.044c-2.388,-1.597 0.527,-3.187 1.494,-4.032l2.075,-1.664c1.664,-1.028 0.731,-1.091 2.01,-1.226c0.474,-0.709 0.874,-0.985 1.559,-1.522c0.764,-0.598 0.586,-0.774 1.72,-1.093c0,-0.314 -0.074,-0.238 0.248,-0.197c-0.04,-0.342 -0.11,-0.263 0.237,-0.209c-0.064,-0.353 -0.131,-0.281 0.221,-0.192c0.263,-0.351 -0.57,-0.355 0.387,-0.261c0,-0.351 -0.073,-0.265 0.286,-0.164c0.729,-1.2 0.976,-0.901 1.618,-1.265c0.417,-0.236 0.186,-0.103 0.461,-0.399c0.466,-0.502 -0.056,-0.211 0.552,-0.492c2.24,-1.034 0.412,-0.212 1.629,-1.035c0.525,-0.355 0.769,-0.186 1.298,-0.686c1.434,-1.355 0.419,-0.223 2.024,-1.463c0.467,-0.36 0.606,-0.423 1.25,-0.5c1.277,-1.529 0.692,-0.481 2.106,-1.369c0.707,-0.444 0.174,-0.338 1.05,-0.736c0.589,-0.268 0.399,0.019 0.991,-0.426c-1.991,-3.341 -3.048,-3.283 -3.8,-5.521c-0.878,-0.433 -0.675,-0.429 -1.044,-1.415c-0.499,-1.33 -0.435,-0.321 -0.939,-1.449c-0.882,-1.972 -0.253,-0.497 -0.951,-1.442c-0.493,-0.667 -0.157,-0.991 -0.771,-1.674c-2.817,1.133 -0.891,0.204 -2.968,2.021l-4.461,4.069c-0.315,0.277 0.015,-0.017 -0.322,0.339c-0.437,0.461 -1.891,1.501 -2.451,2.15c-0.066,0.076 -0.12,0.231 -0.298,0.369c-0.373,0.29 0.185,0.337 -0.82,0.239l0,0Z" style="fill:#010101;"/><path d="M567.008,306.881c-16.502,-6.987 -30.695,-20.082 -43.891,-29.725c-1.846,18.705 -10.97,36.265 -47.636,36.265c-31.484,0 -56.831,-21.653 -78.022,-37.052l0.006,0.286c-1.139,15.942 -8.764,36.791 -47.699,36.766c-31.496,-0.023 -55.385,-21.313 -76.552,-36.701c-1.851,18.924 -10.311,36.701 -47.71,36.701c-31.607,0 -55.592,-21.283 -76.812,-36.701c-1.195,17.946 -10.166,36.701 -47.69,36.701c-26.634,0 -47.197,-16.055 -66.063,-29.525c-4.391,-3.139 -5.041,-8.201 0.435,-4.347c18.375,12.929 39.885,23.326 65.628,23.326c28.365,0 42.729,-9.774 42.729,-29.061c0,-0.218 -0.882,-20.625 -32.966,-20.625c-19.186,0 -20.181,13.498 -20.181,19.305c0,3.547 4.671,14.082 19.802,14.082c10.848,0 15.385,-7.286 15.385,-10.559c0,-7.005 -5.342,-12.592 -13.128,-14.019c-4.257,-0.772 -7.972,-2.132 -0.302,-2.132c0.746,0 1.784,-0.543 2.504,-0.489c10.091,0.663 17.898,6.046 17.898,16.64c0,12.555 -14.225,18.906 -22.357,18.906c-17.244,-0.001 -25.07,-14.775 -25.07,-23.151c0,-16.281 11.558,-28.069 25.938,-28.069c27.364,0 34.283,15.507 37.314,27.28l0.016,0.41c0.685,0.492 1.373,0.975 2.074,1.482c20.933,14.994 44.327,30 74.846,30c28.364,0 42.731,-9.774 42.731,-29.061c0,-0.218 -0.885,-20.625 -32.966,-20.625c-19.19,0 -20.178,13.498 -20.178,19.305c0,3.547 4.668,14.082 19.799,14.082c10.846,0 15.383,-7.286 15.383,-10.559c0,-7.005 -5.343,-12.592 -13.128,-14.019c-4.26,-0.772 -7.968,-2.132 -0.3,-2.132c0.747,0 1.784,-0.543 2.506,-0.489c10.083,0.663 17.896,6.046 17.896,16.64c0.001,12.555 -14.231,18.906 -22.357,18.906c-17.244,-0.001 -25.072,-14.775 -25.072,-23.151c0,-16.281 11.558,-28.069 25.937,-28.069c27.368,0 34.951,15.507 37.322,26.889l0.023,0.584c0.609,0.436 1.213,0.856 1.83,1.302c20.93,14.998 44.321,30.397 74.836,30.397c28.365,0 42.729,-9.774 42.729,-29.061c0,-0.218 -0.875,-20.625 -32.966,-20.625c-19.185,0 -20.178,13.498 -20.178,19.305c0,3.547 4.674,14.082 19.804,14.082c10.843,0 15.385,-7.286 15.385,-10.559c0.001,-7.005 -5.347,-12.592 -13.137,-14.019c-4.253,-0.772 -7.968,-2.132 -0.293,-2.132c0.742,0 1.779,-0.543 2.503,-0.489c10.088,0.663 17.901,6.046 17.901,16.64c0,12.555 -14.231,18.906 -22.359,18.906c-17.242,-0.001 -25.077,-14.775 -25.077,-23.151c0,-16.281 11.556,-28.121 25.94,-28.069c28.825,0.108 35.057,17.415 37.285,26.969c1.181,0.94 2.914,2.338 3.518,2.776c20.932,14.991 44.141,29.427 74.66,29.427c28.361,0 42.729,-9.774 42.729,-29.061c0.001,-0.218 -0.879,-20.625 -32.963,-20.625c-19.186,0 -20.181,13.498 -20.181,19.305c0,3.547 4.67,14.082 19.802,14.082c10.848,0 15.385,-7.286 15.385,-10.559c0,-7.005 -5.343,-12.592 -13.131,-14.019c-4.257,-0.772 -7.968,-2.132 -0.301,-2.132c0.745,0 1.779,-0.543 2.503,-0.489c10.09,0.663 17.901,6.046 17.901,16.64c0,12.555 -14.227,18.906 -22.357,18.906c-17.244,-0.001 -25.072,-14.775 -25.072,-23.151c0,-16.281 11.557,-28.069 25.934,-28.069c27.372,0 35.031,15.782 36.984,25.282l0.184,2.627c0.136,0.106 0.272,0.203 0.409,0.298c13.147,9.42 27.294,18.654 43.667,24.876c6.955,2.637 6.77,5.722 6.597,7.18c-0.184,1.449 -2.229,4.757 -6.563,2.915l0,0Z" style="fill:#000;"/><path d="M241.724,273.525c-1.543,3.712 -3.559,7.167 -7.006,7.167l-0.948,0c-2.442,0 -4.197,-1.646 -5.574,-3.196c-0.974,-1.103 -1.793,-3.872 -1.793,-5.369l0.356,-0.828c0,-3.602 3.258,-4.296 7.426,-4.296l0,0c1.659,0 3.335,1.127 4.578,1.914c1.881,1.198 2.961,2.432 2.961,4.608l0,0Z" style="fill:#69f;"/><path d="M365.992,273.525c-1.543,3.712 -3.562,7.167 -7.008,7.167l-0.948,0c-2.438,0 -4.197,-1.646 -5.577,-3.196c-0.972,-1.103 -1.788,-3.872 -1.788,-5.369l0.357,-0.828c0,-3.602 3.255,-4.296 7.416,-4.296l0.001,0c1.66,0 3.335,1.127 4.578,1.914c1.884,1.198 2.969,2.432 2.969,4.608l0,0Z" style="fill:#69f;"/><path d="M491.704,273.525c-1.539,3.712 -3.559,7.167 -7.002,7.167l-0.951,0c-2.438,0 -4.194,-1.646 -5.575,-3.196c-0.972,-1.103 -1.794,-3.872 -1.794,-5.369l0.358,-0.828c0,-3.602 3.254,-4.296 7.422,-4.296l0,0c1.658,0 3.333,1.127 4.578,1.914c1.881,1.198 2.964,2.432 2.964,4.608l0,0Z" style="fill:#69f;"/><path d="M117.222,273.525c-1.538,3.712 -3.557,7.167 -7.003,7.167l-0.951,0c-2.438,0 -4.193,-1.646 -5.574,-3.196c-0.971,-1.103 -1.794,-3.872 -1.794,-5.369l0.358,-0.828c0,-3.602 3.255,-4.296 7.422,-4.296l0,0c1.66,0 3.336,1.127 4.579,1.914c1.883,1.198 2.963,2.432 2.963,4.608l0,0Z" style="fill:#69f;"/><path d="M567.008,79.78c-16.502,-6.987 -30.695,-20.082 -43.891,-29.725c-1.846,18.705 -10.97,36.265 -47.636,36.265c-31.484,0 -56.831,-21.653 -78.022,-37.053l0.006,0.287c-1.139,15.942 -8.764,36.79 -47.699,36.766c-31.496,-0.023 -55.385,-21.313 -76.552,-36.701c-1.851,18.924 -10.311,36.701 -47.71,36.701c-31.607,0 -55.592,-21.283 -76.812,-36.701c-1.195,17.945 -10.166,36.701 -47.69,36.701c-26.634,0 -47.197,-16.055 -66.063,-29.525c-4.391,-3.139 -5.041,-8.202 0.435,-4.347c18.375,12.929 39.885,23.326 65.628,23.326c28.365,0 42.729,-9.775 42.729,-29.062c0,-0.217 -0.882,-20.624 -32.966,-20.624c-19.186,-0.001 -20.181,13.497 -20.181,19.305c0,3.547 4.671,14.082 19.802,14.082c10.848,-0.001 15.385,-7.287 15.385,-10.559c0,-7.006 -5.342,-12.592 -13.128,-14.019c-4.257,-0.772 -7.972,-2.132 -0.302,-2.132c0.746,0 1.784,-0.543 2.504,-0.489c10.091,0.663 17.898,6.046 17.898,16.64c0,12.555 -14.225,18.905 -22.357,18.905c-17.244,0 -25.07,-14.774 -25.07,-23.15c0,-16.281 11.558,-28.069 25.938,-28.069c27.364,0 34.283,15.507 37.314,27.279l0.016,0.411c0.685,0.492 1.373,0.975 2.074,1.482c20.933,14.993 44.327,30 74.846,30c28.364,0 42.731,-9.775 42.731,-29.062c0,-0.217 -0.885,-20.624 -32.966,-20.624c-19.19,-0.001 -20.178,13.497 -20.178,19.305c0,3.547 4.668,14.082 19.799,14.082c10.846,-0.001 15.383,-7.287 15.383,-10.559c0,-7.006 -5.343,-12.592 -13.128,-14.019c-4.26,-0.772 -7.968,-2.132 -0.3,-2.132c0.747,0 1.784,-0.543 2.506,-0.489c10.083,0.663 17.896,6.046 17.896,16.64c0.001,12.555 -14.231,18.905 -22.357,18.905c-17.244,0 -25.072,-14.774 -25.072,-23.15c0,-16.281 11.558,-28.069 25.937,-28.069c27.368,0 34.951,15.507 37.322,26.889l0.023,0.584c0.609,0.435 1.213,0.855 1.83,1.302c20.93,14.998 44.321,30.397 74.836,30.397c28.365,0 42.729,-9.775 42.729,-29.062c0,-0.217 -0.875,-20.624 -32.966,-20.624c-19.185,-0.001 -20.178,13.497 -20.178,19.305c0,3.547 4.674,14.082 19.804,14.082c10.843,-0.001 15.385,-7.287 15.385,-10.559c0.001,-7.006 -5.347,-12.592 -13.137,-14.019c-4.253,-0.772 -7.968,-2.132 -0.293,-2.132c0.742,0 1.779,-0.543 2.503,-0.489c10.088,0.663 17.901,6.046 17.901,16.64c0,12.555 -14.231,18.905 -22.359,18.905c-17.242,0 -25.077,-14.774 -25.077,-23.15c0,-16.281 11.556,-28.122 25.94,-28.069c28.825,0.108 35.057,17.415 37.285,26.969c1.181,0.939 2.914,2.338 3.518,2.776c20.932,14.99 44.141,29.427 74.66,29.427c28.361,0 42.729,-9.775 42.729,-29.062c0.001,-0.217 -0.879,-20.624 -32.963,-20.624c-19.186,-0.001 -20.181,13.497 -20.181,19.305c0,3.547 4.67,14.082 19.802,14.082c10.848,-0.001 15.385,-7.287 15.385,-10.559c0,-7.006 -5.343,-12.592 -13.131,-14.019c-4.257,-0.772 -7.968,-2.132 -0.301,-2.132c0.745,0 1.779,-0.543 2.503,-0.489c10.09,0.663 17.901,6.046 17.901,16.64c0,12.555 -14.227,18.905 -22.357,18.905c-17.244,0 -25.072,-14.774 -25.072,-23.15c0,-16.281 11.557,-28.069 25.934,-28.069c27.372,0 35.031,15.782 36.984,25.282l0.184,2.626c0.136,0.107 0.272,0.203 0.409,0.298c13.147,9.42 27.294,18.654 43.667,24.876c6.955,2.637 6.77,5.723 6.597,7.181c-0.184,1.448 -2.229,4.757 -6.563,2.915l0,0Z" style="fill:#000;"/><path d="M241.724,46.424c-1.543,3.711 -3.559,7.166 -7.006,7.166l-0.948,0c-2.442,0 -4.197,-1.646 -5.574,-3.195c-0.974,-1.103 -1.793,-3.873 -1.793,-5.37l0.356,-0.828c0,-3.601 3.258,-4.296 7.426,-4.296l0,0c1.659,0 3.335,1.127 4.578,1.915c1.881,1.197 2.961,2.431 2.961,4.608l0,0Z" style="fill:#69f;"/><path d="M365.992,46.424c-1.543,3.711 -3.562,7.166 -7.008,7.166l-0.948,0c-2.438,0 -4.197,-1.646 -5.577,-3.195c-0.972,-1.103 -1.788,-3.873 -1.788,-5.37l0.357,-0.828c0,-3.601 3.255,-4.296 7.416,-4.296l0.001,0c1.66,0 3.335,1.127 4.578,1.915c1.884,1.197 2.969,2.431 2.969,4.608Z" style="fill:#69f;"/><path d="M491.704,46.424c-1.539,3.711 -3.559,7.166 -7.002,7.166l-0.951,0c-2.438,0 -4.194,-1.646 -5.575,-3.195c-0.972,-1.103 -1.794,-3.873 -1.794,-5.37l0.358,-0.828c0,-3.601 3.254,-4.296 7.422,-4.296l0,0c1.658,0 3.333,1.127 4.578,1.915c1.881,1.197 2.964,2.431 2.964,4.608l0,0Z" style="fill:#69f;"/><path d="M117.222,46.424c-1.538,3.711 -3.557,7.166 -7.003,7.166l-0.951,0c-2.438,0 -4.193,-1.646 -5.574,-3.195c-0.971,-1.103 -1.794,-3.873 -1.794,-5.37l0.358,-0.828c0,-3.601 3.255,-4.296 7.422,-4.296l0,0c1.66,0 3.336,1.127 4.579,1.915c1.883,1.197 2.963,2.431 2.963,4.608l0,0Z" style="fill:#69f;"/></g></svg>